<svg width="222" height="120" viewBox="0 0 222 120" fill="none" xmlns="http://www.w3.org/2000/svg">
<g clip-path="url(#clip0_328_2)">
<path fill-rule="evenodd" clip-rule="evenodd" d="M202.546 60.4995C202.354 60.0727 202.267 59.8582 202.164 59.6533C199.39 54.1601 196.622 48.6669 193.82 43.1737C193.539 42.6229 193.574 42.2977 193.959 41.8226C198.373 36.4556 202.731 31.0589 207.153 25.7142C207.309 25.5256 207.448 25.3259 207.506 24.9897C206.223 25.3378 204.939 25.6822 203.648 26.0363C198.321 27.5061 192.95 28.9685 187.673 30.4606C187.177 30.5994 186.952 30.4487 186.703 30.0196C183.679 24.7566 180.634 19.4786 177.574 14.2823C177.418 14.0099 177.247 13.7456 176.914 13.5178C176.668 14.9207 176.42 16.3163 176.179 17.7193C175.33 22.6706 174.482 27.5922 173.64 32.5658C173.548 33.0996 173.422 33.6348 173.378 34.1692C173.336 34.68 173.083 34.8685 172.637 35.0155C166.353 37.0717 160.084 39.1428 153.808 41.2139C153.533 41.3037 153.263 41.4225 152.967 41.7009C158.102 43.8239 163.237 45.947 168.443 48.1072C168.253 48.2638 168.128 48.3855 167.989 48.4783C164.779 50.6385 161.563 52.7987 158.361 54.9662C157.976 55.2275 157.672 55.2647 157.241 55.062C153.404 53.2656 149.538 51.4988 145.687 49.7173C143.961 48.9155 142.414 47.854 141.208 46.31C138.477 42.8359 139.019 38.8867 142.656 36.4371C143.847 35.6428 145.202 35.0563 146.55 34.5961C152.705 32.5102 158.888 30.4984 165.022 28.4793C165.54 28.3078 165.778 28.0673 165.878 27.4846C166.705 22.5259 167.554 17.5374 168.417 12.6381C168.876 9.98799 169.118 7.2785 170.356 4.84368C170.831 3.90835 171.398 2.99529 172.082 2.21584C174.536 -0.61984 177.952 -0.723765 180.569 1.97236C181.447 2.88542 182.195 3.95437 182.844 5.06044C185.697 9.90782 188.507 14.7849 191.331 19.6843C191.663 20.261 191.961 20.3768 192.572 20.2091C199.455 18.2865 206.337 16.3935 213.255 14.5006C214.681 14.1094 216.115 13.9676 217.577 14.2519C220.75 14.8695 222.141 17.3845 221.064 20.5839C220.577 22.0389 219.73 23.2637 218.782 24.4292C213.975 30.3158 209.154 36.2322 204.376 42.0965C203.983 42.5776 203.975 42.9205 204.247 43.4624C207.128 49.1115 209.981 54.7458 212.877 60.4617C213.562 61.8127 214.089 63.2231 214.103 64.7746C214.137 68.3081 211.65 71.2031 208.277 71.7228C206.387 72.01 204.632 71.5899 202.856 71.0213C198.542 69.6331 194.227 68.2672 189.876 66.9088C189.475 66.7841 189.322 66.6185 189.25 66.1694C188.753 62.9997 188.208 59.8374 187.681 56.6677C187.667 56.5808 187.692 56.488 187.706 56.2935C192.634 57.7114 197.548 59.1069 202.612 60.5693" fill="white"/>
<path fill-rule="evenodd" clip-rule="evenodd" d="M193.987 106.895C190.093 106.889 186.214 106.869 182.291 106.887C181.775 106.887 181.485 106.733 181.2 106.277C176.593 98.9728 171.928 91.6535 167.364 84.3787C167.216 84.1471 167.06 83.9236 166.798 83.5324C165.807 91.4011 164.83 99.1212 163.853 106.841H153.654C153.774 105.81 153.88 104.807 154.006 103.813C154.997 95.8699 156.003 88.0012 157.001 80.0583C157.957 72.4866 158.906 64.9149 159.875 57.3432C159.903 57.1197 160.048 56.8324 160.223 56.7137C163.732 54.3308 167.256 51.9702 170.779 49.6096C170.829 49.5747 170.901 49.5718 171.082 49.5168C170.02 57.9793 168.964 66.3676 167.902 74.7559C167.944 74.7849 167.985 74.8168 168.027 74.8457C173.554 68.4766 179.082 62.0777 184.716 55.6195C184.878 56.5994 185.02 57.4382 185.159 58.277C185.555 60.6747 185.936 63.0873 186.357 65.485C186.443 65.969 186.318 66.2644 186.009 66.6059C182.436 70.4957 178.877 74.4003 175.311 78.3347C175.155 78.5061 175.007 78.6828 174.829 78.8862C174.943 79.074 175.041 79.2574 175.155 79.4251C181.295 88.4073 187.422 97.3894 193.555 106.372C193.666 106.534 193.827 106.662 193.964 106.807V106.948" fill="white"/>
<path fill-rule="evenodd" clip-rule="evenodd" d="M73.4584 83.1405C73.3022 82.3165 73.191 81.0991 72.8372 79.9633C71.1256 74.4775 65.7267 71.5008 60.1425 72.8296C54.0019 74.3142 49.5873 79.3398 49.0167 85.8945C48.546 90.7196 51.0422 95.3963 55.6779 97.1036C59.415 98.5066 63.0237 97.9202 66.3757 95.8342C70.8046 93.0728 73.2009 88.9677 73.5076 83.1405H73.4584ZM46.4999 103.554C46.1989 105.915 45.9094 108.135 45.6298 110.362C45.2568 113.316 44.881 116.278 44.5244 119.269C44.483 119.615 44.3824 119.768 44.0258 119.765C41.223 119.754 38.4202 119.757 35.6102 119.751C35.546 119.751 35.4818 119.716 35.3314 119.67C35.5011 118.275 35.6658 116.872 35.8413 115.476C36.4596 110.577 37.0751 105.677 37.7027 100.778C38.423 95.1661 38.9865 89.569 39.9065 84.0016C41.5325 74.1286 49.6058 65.6661 59.0199 63.5134C64.4901 62.2811 69.7177 62.852 74.4961 66.0596C79.2602 69.2516 81.9846 73.9282 82.6264 79.7183C83.5108 87.9582 80.5939 94.7876 74.9953 100.503C71.301 104.223 66.865 106.583 61.8013 107.385C56.5451 108.209 51.6028 107.298 47.181 104.074C47.0191 103.955 46.8436 103.851 46.5655 103.669" fill="white"/>
<path fill-rule="evenodd" clip-rule="evenodd" d="M41.7928 56.7879C38.6548 59.2227 35.6238 61.5685 32.5927 63.9217C32.1028 63.1199 31.6656 62.3182 31.1521 61.5685C29.8327 59.6459 28.1923 58.2132 25.8103 58.0424C23.8276 57.8969 22.1302 58.5754 20.7823 60.0987C19.577 61.4571 19.4201 63.3946 20.5455 64.9312C21.7865 66.6237 23.1415 68.2271 24.5323 69.7934C26.8359 72.3916 29.2393 74.8858 31.5215 77.5136C33.5969 79.8891 35.2586 82.5466 35.7721 85.8277C36.3826 89.6878 35.6416 93.3252 33.8893 96.7399C30.6443 103.013 25.545 106.687 18.7697 107.801C15.7886 108.302 12.8217 108.204 9.92615 107.313C6.06781 106.133 3.37909 103.497 1.65317 99.8153C1.04339 98.5014 0.576255 97.1133 0.0270996 95.7028C3.40048 93.8248 6.68828 91.9912 10.0117 90.1428C10.1258 90.4301 10.2093 90.6706 10.3156 90.9C10.884 92.0803 11.3497 93.3348 12.0486 94.426C14.1382 97.6552 17.5045 98.635 20.8921 97.039C21.7694 96.627 22.6181 96.0517 23.3384 95.3836C25.535 93.3497 25.9486 90.514 24.3226 87.9604C23.3883 86.4906 22.2187 85.1692 21.0776 83.8553C18.3532 80.7079 15.5147 77.6569 12.8759 74.4278C11.043 72.2157 9.79493 69.6472 9.39554 66.7076C8.96406 63.4711 9.58525 60.4275 11.1999 57.7255C15.2152 50.9629 21.0419 47.4814 28.7443 47.7041C33.1447 47.8696 36.6607 50.0127 39.3709 53.5759C40.1768 54.63 40.9327 55.7212 41.7529 56.8644" fill="white"/>
<path fill-rule="evenodd" clip-rule="evenodd" d="M116.25 92.7907C115.737 96.8661 115.251 100.734 114.752 104.594C114.724 104.791 114.577 105.058 114.418 105.133C106.786 108.8 96.8018 108.288 90.597 100.91C87.245 96.9455 85.8401 92.2243 86.0469 87.028C86.534 74.9281 96.1742 64.3129 107.728 62.8282C114.467 61.9671 120.351 63.86 124.916 69.3161C128.025 73.0278 129.466 77.4817 129.252 82.3811C129.113 85.6176 128.625 88.8319 128.239 92.0313C127.69 96.5892 127.091 101.162 126.513 105.69C126.491 105.849 126.46 106.012 126.424 106.218H117.367C117.486 105.171 117.598 104.147 117.726 103.122C118.384 97.8593 119.11 92.5814 119.687 87.3108C120.047 84.0298 119.821 80.771 118.375 77.7348C116.842 74.5057 114.274 72.791 110.887 72.4198C103.883 71.6478 97.1933 76.7104 95.7669 83.8516C94.7827 88.5876 96.3354 93.1307 99.9605 95.6546C103.491 98.0968 107.235 98.1043 111.086 96.5231C113.04 95.7214 114.695 94.4446 116.278 92.7298" fill="white"/>
<path fill-rule="evenodd" clip-rule="evenodd" d="M154.762 64.0627C154.347 67.3438 153.935 70.5729 153.521 73.8614C151.595 73.8614 149.713 73.8503 147.83 73.8644C146.303 73.8762 144.913 74.9036 144.449 76.3883C144.271 76.968 144.205 77.5908 144.126 78.1995C143.17 85.7713 142.222 93.2688 141.273 100.766C141.034 102.667 140.803 104.567 140.563 106.497H131.078C131.253 105.049 131.42 103.646 131.595 102.243C132.211 97.359 132.829 92.4448 133.45 87.6197C133.987 83.3958 134.47 79.1571 135.104 74.9259C135.953 69.2842 141.345 64.2364 146.801 64.0137C149.411 63.8949 152.028 63.9937 154.717 63.9937" fill="white"/>
<path d="M54.4163 49.81H56.7627L56.2078 46.1133L54.4163 49.81ZM57.1335 52.2003H53.2324L51.9914 54.7317H49.2243L55.322 42.8545H57.9893L60.0647 54.7317H57.5044L57.1364 52.2003" fill="white"/>
<path d="M71.1049 45.2819H69.7142L69.2463 48.021H70.637C71.4786 48.021 72.1419 47.4472 72.1419 46.3657C72.1419 45.6493 71.7239 45.2819 71.1006 45.2819H71.1049ZM67.7386 42.8916H71.3902C73.3015 42.8916 74.6352 44.0793 74.6352 46.1133C74.6352 48.6817 72.895 50.4039 70.4131 50.4039H68.8369L68.0952 54.7465H65.7132L67.7244 42.8693" fill="white"/>
<path d="M82.7299 49.81H85.0762L84.5221 46.1133L82.7299 49.81ZM85.44 52.2003H81.5388L80.2979 54.7317H77.5307L83.6285 42.8545H86.2958L88.3712 54.7317H85.8108L85.4428 52.2003" fill="white"/>
<path d="M100.56 54.3382C99.7537 54.7213 98.8693 54.9499 97.9778 54.9499C94.961 54.9499 93.0711 52.5967 93.0711 49.6497C93.0711 45.8787 96.1164 42.709 99.7394 42.709C100.645 42.709 101.465 42.9354 102.136 43.3177L101.801 46.1608C101.3 45.584 100.489 45.1809 99.4905 45.1809C97.4151 45.1809 95.568 47.1332 95.568 49.3973C95.568 51.1195 96.6092 52.4705 98.2496 52.4705C99.2551 52.4705 100.225 52.0675 100.881 51.5129L100.564 54.3338" fill="white"/>
<path d="M115.537 49.9585H110.58L109.774 54.7317H107.399L109.41 42.8545H111.792L110.994 47.546H115.95L116.756 42.8545H119.138L117.127 54.7317H114.745L115.544 49.9585" fill="white"/>
<path d="M124.095 54.7094L126.106 42.8322H132.425L132.023 45.2225H128.086L127.685 47.5237H131.301L130.899 49.914H127.283L126.882 52.3043H130.819L130.417 54.6946H124.098" fill="white"/>
</g>
<defs>
<clipPath id="clip0_328_2">
<rect width="222" height="120" fill="white"/>
</clipPath>
</defs>
</svg>
